<svg width="601" height="298" viewBox="0 0 601 298" fill="none" xmlns="http://www.w3.org/2000/svg">
<path d="M1 218.086C33.8649 216.941 16.5676 227.246 33 249" stroke="white"/>
<path d="M108.572 278.642C95.7236 299.201 93.6824 282.216 67 278.31" stroke="white"/>
<path d="M186.634 236.441C157.045 225.63 169.34 241.555 147 259.701" stroke="white"/>
<path d="M301.634 136.441C272.045 125.63 284.34 141.555 262 159.701" stroke="white"/>
<path d="M409.634 28.4409C380.045 17.6301 392.34 33.5546 370 51.7015" stroke="white"/>
<path d="M555.24 34.1078C556.933 2.65078 545.296 19.0621 521.413 3.00001" stroke="white"/>
<path d="M587.074 69.0875C557.623 80.2716 577.34 84.2703 572.319 112.61" stroke="white"/>
<path d="M242.019 185.025C249.658 208.034 235.275 198.772 215.248 216.831" stroke="white"/>
<path d="M352.019 75.0252C359.658 98.0336 345.275 88.7721 325.248 106.831" stroke="white"/>
<path d="M484.745 7.87053C480.415 31.7241 472.234 16.6995 446 22.9421" stroke="white"/>
<path d="M544.004 79.4999C568.129 77.1025 558.938 89.1313 572.155 112.637" stroke="white"/>
</svg>
