<svg width="1157" height="1113" viewBox="0 0 1157 1113" fill="none" xmlns="http://www.w3.org/2000/svg">
<circle cx="294.105" cy="14.5274" r="14.5274" fill="#FF0000"/>
<path d="M301.269 26.0697H287.537L279 49.5L287.537 72.6369H301.269L310 49.5L301.269 26.0697Z" fill="#FF0000"/>
<circle cx="97.1045" cy="207.527" r="14.5274" fill="white"/>
<path d="M104.269 219.07H90.5374L82 242.5L90.5374 265.637H104.269L113 242.5L104.269 219.07Z" fill="white" stroke="white"/>
<circle cx="582" cy="339" r="47" fill="#513763"/>
<path d="M604.835 376H560.54L533 451.976L560.54 527H604.835L633 451.976L604.835 376Z" fill="#513763"/>
<circle cx="293.105" cy="662.527" r="14.5274" fill="white"/>
<path d="M300.269 674.07H286.537L278 697.5L286.537 720.637H300.269L309 697.5L300.269 674.07Z" fill="white" stroke="white"/>
<circle cx="98.1045" cy="858.527" r="14.5274" fill="white"/>
<path d="M105.269 870.07H91.5374L83 893.5L91.5374 916.637H105.269L114 893.5L105.269 870.07Z" fill="white" stroke="white"/>
<circle cx="617.104" cy="1053.53" r="14.5274" fill="white"/>
<path d="M624.269 1065.07H610.537L602 1088.5L610.537 1111.64H624.269L633 1088.5L624.269 1065.07Z" fill="white" stroke="white"/>
<path d="M1045 901.641L1054.92 793" stroke="white"/>
<path d="M1040.11 972.599L1100.61 935.099L1156.11 980.599" stroke="white"/>
<path d="M1154.9 898.124L1137 796" stroke="white"/>
<path d="M1049.18 320.611L1053.51 256" stroke="white"/>
<path d="M1047.43 338.666L1073.35 371.316L1098.05 343.423" stroke="white"/>
<path d="M1097.14 318.519L1089.33 257.784" stroke="white"/>
<path d="M2.18142 469.645L6.50806 429" stroke="white"/>
<path d="M0.431529 481.003L26.3481 501.542L51.0497 483.996" stroke="white"/>
<path d="M50.1396 468.329L42.3269 430.122" stroke="white"/>
</svg>
