<svg width="58" height="57" viewBox="0 0 58 57" fill="none" xmlns="http://www.w3.org/2000/svg">
<path d="M29.166 0C13.4269 0 0.666016 12.7609 0.666016 28.5C0.666016 44.2391 13.4269 57 29.166 57C44.9051 57 57.666 44.2391 57.666 28.5C57.666 12.7609 44.9051 0 29.166 0ZM44.2734 37.9216L39.8369 37.9834C39.8369 37.9834 38.8798 38.171 37.6281 37.3065C35.968 36.1665 34.4029 33.2001 33.1821 33.5849C31.9448 33.9791 31.9828 36.6486 31.9828 36.6486C31.9828 36.6486 31.9923 37.1189 31.7096 37.4252C31.4033 37.7554 30.8024 37.7221 30.8024 37.7221H28.8145C28.8145 37.7221 24.4303 38.0855 20.5661 34.0575C16.3576 29.6661 12.6384 20.9998 12.6384 20.9998C12.6384 20.9998 12.4199 20.4535 12.6526 20.1733C12.9163 19.8645 13.6264 19.855 13.6264 19.855L18.3764 19.8312C18.3764 19.8312 18.8229 19.9096 19.1459 20.1471C19.4095 20.3419 19.5591 20.7076 19.5591 20.7076C19.5591 20.7076 20.3263 22.6527 21.3451 24.415C23.3306 27.8492 24.2521 28.6021 24.9266 28.234C25.9099 27.6972 25.6154 23.3795 25.6154 23.3795C25.6154 23.3795 25.6344 21.812 25.1214 21.1137C24.7224 20.5699 23.9719 20.4084 23.6441 20.368C23.3758 20.3324 23.8128 19.7101 24.3828 19.4299C25.2378 19.0119 26.7483 18.9881 28.5319 19.0047C29.9213 19.019 30.3226 19.1045 30.8641 19.2375C32.5029 19.6341 31.9471 21.1636 31.9471 24.833C31.9471 26.0086 31.7358 27.6616 32.5813 28.2055C32.947 28.4406 33.8376 28.2411 36.0583 24.4554C37.1151 22.6599 37.906 20.5509 37.906 20.5509C37.906 20.5509 38.0794 20.1756 38.3478 20.0141C38.6233 19.8479 38.9938 19.9001 38.9938 19.9001L43.9931 19.8692C43.9931 19.8692 45.4941 19.6887 45.7388 20.3704C45.9953 21.0829 45.1783 22.7477 43.1358 25.4719C39.7823 29.9464 39.4094 29.5307 42.1953 32.1195C44.8553 34.5919 45.4039 35.7936 45.4965 35.9456C46.5961 37.7768 44.2734 37.9216 44.2734 37.9216Z" fill="#9973AF"/>
</svg>
