<svg width="57" height="57" viewBox="0 0 57 57" fill="none" xmlns="http://www.w3.org/2000/svg">
<mask id="mask0_23_249" style="mask-type:alpha" maskUnits="userSpaceOnUse" x="0" y="0" width="57" height="57">
<circle cx="28.5" cy="28.5" r="28.5" fill="#60757E"/>
</mask>
<g mask="url(#mask0_23_249)">
<path d="M64.7475 6.33412C63.8735 3.05537 61.2971 0.470501 58.0291 -0.406374C52.1011 -2 28.3359 -2 28.3359 -2C28.3359 -2 4.57074 -2 -1.35726 -0.406374C-4.62526 0.470501 -7.20166 3.05537 -8.07566 6.33412C-9.66406 12.2816 -9.66406 28.5 -9.66406 28.5C-9.66406 28.5 -9.66406 44.7184 -8.07566 50.6659C-7.20166 53.9446 -4.62526 56.5295 -1.35726 57.4064C4.57074 59 28.3359 59 28.3359 59C28.3359 59 52.1011 59 58.0291 57.4064C61.3009 56.5295 63.8735 53.9446 64.7475 50.6659C66.3359 44.7184 66.3359 28.5 66.3359 28.5C66.3359 28.5 66.3359 12.2816 64.7475 6.33412ZM20.7359 38.4049V18.5951C20.7359 17.1273 22.3205 16.2123 23.5859 16.9443L40.6859 26.8492C41.9513 27.5812 41.9513 29.4188 40.6859 30.1508L23.5859 40.0557C22.3205 40.7915 20.7359 39.8727 20.7359 38.4049Z" fill="#9973AF"/>
</g>
</svg>
