<svg width="1248" height="1058" viewBox="0 0 1248 1058" fill="none" xmlns="http://www.w3.org/2000/svg">
<path d="M1167.48 1C1165.87 42.206 1182.49 70.4942 1191 79.4876C1180.48 79.4876 1172.21 79.4876 1165.62 96.6567C1159.1 113.614 1146.54 136.959 1146.54 146C1145.16 135.42 1154.42 109.981 1146.54 82.2289C1144.79 76.0651 1126.87 59.2631 1119.49 54.4846C1118.45 54.0758 1117.61 53.6404 1117 53.2289C1117.55 53.3398 1118.4 53.7824 1119.49 54.4846C1130.31 58.7573 1162.11 60.124 1167.48 1Z" fill="#FF0000"/>
<path d="M1222.48 811C1220.87 852.206 1237.49 880.494 1246 889.488C1235.48 889.488 1227.21 889.488 1220.62 906.657C1214.1 923.614 1201.54 946.959 1201.54 956C1200.16 945.42 1209.42 919.981 1201.54 892.229C1199.53 885.159 1176.25 864.095 1172 863.229C1178.98 867.942 1216.6 875.781 1222.48 811Z" stroke="white"/>
<path d="M1215.56 211C1214.78 230.893 1222.86 244.549 1227 248.891C1221.88 248.891 1217.86 248.891 1214.65 257.179C1211.48 265.365 1205.37 276.635 1205.37 281C1204.7 275.892 1209.21 263.612 1205.37 250.214C1204.4 246.801 1193.07 236.632 1191 236.214C1194.4 238.489 1212.7 242.274 1215.56 211Z" stroke="white"/>
<path d="M1215.56 552C1214.78 571.893 1222.86 585.549 1227 589.891C1221.88 589.891 1217.86 589.891 1214.65 598.179C1211.48 606.365 1205.37 617.635 1205.37 622C1204.7 616.892 1209.21 604.612 1205.37 591.214C1204.52 588.238 1195.8 580.127 1192.21 577.82C1191.71 577.623 1191.3 577.413 1191 577.214C1191.27 577.267 1191.68 577.481 1192.21 577.82C1197.47 579.883 1212.95 580.543 1215.56 552Z" fill="#FA00FF"/>
<path d="M1129.96 401C1129.55 411.515 1133.82 418.733 1136 421.028C1133.3 421.028 1131.18 421.028 1129.48 425.409C1127.81 429.736 1124.59 435.693 1124.59 438C1124.23 435.3 1126.61 428.809 1124.59 421.727C1124.07 419.923 1118.09 414.548 1117 414.327C1118.79 415.53 1128.45 417.53 1129.96 401Z" stroke="white"/>
<path d="M1129.96 676C1129.55 686.515 1133.82 693.733 1136 696.028C1133.3 696.028 1131.18 696.028 1129.48 700.409C1127.81 704.736 1124.59 710.693 1124.59 713C1124.23 710.3 1126.61 703.809 1124.59 696.727C1124.07 694.923 1118.09 689.548 1117 689.327C1118.79 690.53 1128.45 692.53 1129.96 676Z" stroke="white"/>
<path d="M236.519 1C238.126 42.206 221.509 70.4942 213 79.4876C223.517 79.4876 231.787 79.4876 238.384 96.6567C244.899 113.614 257.457 136.959 257.457 146C258.844 135.42 249.576 109.981 257.457 82.2289C259.465 75.1592 282.745 54.0945 287 53.2289C280.021 57.942 242.399 65.7811 236.519 1Z" stroke="white"/>
<path d="M188.442 211C189.223 230.893 181.14 244.549 177 248.891C182.116 248.891 186.14 248.891 189.349 257.179C192.519 265.365 198.628 276.635 198.628 281C199.302 275.892 194.794 263.612 198.628 250.214C199.605 246.801 210.93 236.632 213 236.214C209.605 238.489 191.302 242.274 188.442 211Z" stroke="white"/>
<path d="M188.442 552C189.223 571.893 181.14 585.549 177 589.891C182.116 589.891 186.14 589.891 189.349 598.179C192.519 606.365 198.628 617.635 198.628 622C199.302 616.892 194.794 604.612 198.628 591.214C199.605 587.801 210.93 577.632 213 577.214C209.605 579.489 191.302 583.274 188.442 552Z" stroke="white"/>
<path d="M274.039 401C274.451 411.515 270.185 418.733 268 421.028C270.7 421.028 272.824 421.028 274.517 425.409C276.19 429.736 279.415 435.693 279.415 438C279.771 435.3 277.391 428.809 279.415 421.727C279.864 420.155 284.465 415.867 286.361 414.648C286.627 414.543 286.844 414.432 287 414.327C286.86 414.356 286.64 414.469 286.361 414.648C283.583 415.738 275.417 416.087 274.039 401Z" fill="#FAFF00"/>
<path d="M7.26913 1057L1 727.724L84.3562 673L54.1715 727.724L115.934 728.888L91.7863 673L177 727.724V1057H7.26913Z" stroke="white"/>
<path d="M29.7526 917L22 904.138L87.9489 902L163 904.138L157.89 917H29.7526Z" stroke="white"/>
<path d="M29.7526 1035L22 1022.14L87.9489 1020L163 1022.14L157.89 1035H29.7526Z" stroke="white"/>
<path d="M25.7526 868L18 843.99L83.9489 840L159 843.99L153.89 868H25.7526Z" fill="#30ADF0"/>
<path d="M29.7526 1008L22 954.836L87.9489 946L163 954.836L157.89 1008H29.7526Z" stroke="white"/>
<path d="M29.7526 938L22 925.995L87.9489 924L163 925.995L157.89 938H29.7526Z" fill="#523662"/>
<path d="M25.7526 895L18 882.138L83.9489 880L159 882.138L153.89 895H25.7526Z" stroke="white"/>
<path d="M25.7526 828L18 815.138L83.9489 813L159 815.138L153.89 828H25.7526Z" stroke="white"/>
<path d="M25.7526 801L18 788.995L83.9489 787L159 788.995L153.89 801H25.7526Z" stroke="white"/>
<path d="M202.49 915.225L214.681 907.185L218.216 973.174L217.844 1048.37L205.364 1043.53L202.49 915.225Z" stroke="white"/>
<path d="M221.213 964.373L232.003 956.49L244.343 997.74L254.121 1045.74L241.314 1045.48L221.213 964.373Z" fill="#FF3030"/>
<path d="M263.724 1019.08L278.088 1017.87L280.012 1032.13L277.116 1048.18L262.84 1046.62L263.724 1019.08Z" stroke="white"/>
<path d="M191.526 1057L188 872.64L234.888 842L217.909 872.64L252.65 873.292L239.067 842L287 872.64V1057H191.526Z" stroke="white"/>
</svg>
