<svg width="1015" height="532" viewBox="0 0 1015 532" fill="none" xmlns="http://www.w3.org/2000/svg">
<path d="M303.5 19.5L287 22.5L275.5 38H255.5L251 30L239.5 29.5V16L258 15.5L262.5 24.5H273L277 16L259 6.5L296.5 7.5L305.5 1L323 3L326.5 12.5M303.5 19.5L309 14L312.5 17.5H321.5L326.5 12.5M303.5 19.5L292 28.5L297.5 38.5L312.5 39L331 44.5V72.5L335 76.5L329.5 81.5L335 93L338 108H343.5L350.5 118H355.5L373 90.5H385.5V79.5H402.5L419.5 65.5L409.5 60.5V55L422.5 54L433.5 33L429 29.5L435.5 17.5L451 12.5L439 8.5H426L417 3H374L367.5 10.5L326.5 12.5M616.5 389L616.576 390.071M616.576 390.071L618.5 417H623L629 399L635.5 389L629 373L616.576 390.071ZM1 140.5L37.5 133L50 120.5C63 120.5 88.6 120.5 87 120.5C85 120.5 118 159.5 114.5 159.5C111.7 159.5 115.667 192.5 118 209L153.5 258.5L151 240C160.5 253.333 179.5 279.9 179.5 279.5C179.5 279.1 226.167 302 249.5 313.5L240 349.5L273.5 403V454L265 465.5L267.5 518.5L292 531C290.167 522.333 286.4 504.7 286 503.5C285.5 502 295 494.5 295 496C295 497.2 295 485.167 295 479L341 436.5V418.5L371 389.5V374.5L378.5 353.5L331 334.5L325 316L295 299.5L265 295L242.5 299.5L219.5 267C213.333 268 200.8 270.1 200 270.5C199.2 270.9 192.333 255.667 189 248C192.667 244.167 200 236.3 200 235.5C200 234.5 204.5 249.5 216 240C218.833 234.5 225.1 224.7 227.5 229.5C230.5 235.5 242.5 251 242.5 251.5C242.5 251.9 244.833 233.667 246 224.5L283 183.5H295L306.5 171.5L292 162.5L321.5 159.5L297 119L283 124.5C279.833 118.167 273.5 105.7 273.5 106.5C273.5 107.5 262 109 260 109C258.4 109 259.333 125 260 133L249.5 153L243 138.5L233.5 139.5L227.5 126.5L212.5 123.5L217 105.5L236 102.5L243 110L256 100.5L245 95V87H256L262.5 73L269 87H279.5L278.5 100.5L295 101.5L290.5 90.5L303.5 89L299 76.5L279.5 62L266 53L242.5 53.5C239 60 240 64.5 239.5 64.5C239.1 64.5 243 71.1667 245 74.5L242.5 83L230 74.5L227.5 59.5C231.5 53.5 229.833 46.3333 228.5 43.5L217 37L221 27L211 17.5L212.5 26L215 46.5L223 55C224 60.1667 225 69.3 221 64.5C217 59.7 212 54.8333 210 53L204.5 62L212.5 73C214.167 75.3333 216.2 79.3 211 76.5C205.8 73.7 198.167 65 195 61C196.667 56.1667 198.5 47.8 192.5 53C186.5 58.2 181.333 62.1667 179.5 63.5L169 51.5H146.5C145.5 54.1667 143.4 59.5 143 59.5C157 61.5 161.167 64.6667 161.5 66L160.5 72H121.5L116 76.5L91 67L37.5 68L26 80.5V89.5L10.5 90.5V97.5L24 98.5L23 106H10.5L12.5 120.5L20.5 124.5L1 140.5ZM151 33L159.5 41L179.5 46.5C188.667 46.5 206.9 46.5 206.5 46.5C206.1 46.5 205 41.8333 204.5 39.5L195.5 33.5L186.5 38.5L172 27L151 33ZM227 27C229 30.8333 232.9 38.5 232.5 38.5C232.1 38.5 237 45.5 239.5 49H269L267.5 42.5L245 41.5L227 27ZM48.5 231.5L57 244.5L61.5 240.5L52 223.5L48.5 231.5ZM249.5 266L255 269H266C267.167 271.167 269.4 275.5 269 275.5C268.6 275.5 276.833 273.5 281 272.5L266 266L246 256.5L227.5 258.5V264.5L249.5 266ZM415 89C417 98.2 417.5 101.833 417.5 102.5L433.5 101.5L435.5 97H440.5V85L419.5 87L415 89ZM1006 469.5L1000 458.5V450L1014 462.5L1006 469.5ZM976.5 490L996 469.5L1001.5 479.5L987 495.5L976.5 490ZM910.5 472.5L917 481.5L923 476.5V469.5L910.5 472.5ZM904 464H923L944 427.5L938 402.5L909 368.5L901.5 386L886.5 376.5V371.5H875L873 376.5H859L849 389V396.5H840L830 402.5H822.5V424C824.5 426.5 828.4 431.5 828 431.5C827.6 431.5 829.167 439.167 830 443L845.5 450L865 441.5H886.5L890 455C892.833 455 898.3 455 897.5 455C896.7 455 901.5 461 904 464ZM931 368.5L923 360L901.5 357.5L892.5 348C888.833 348 881.3 348 880.5 348C879.7 348 876.5 342.667 875 340L865 332L866.5 323L875 332H886.5L890 340H906.5C912.833 344.667 925.5 354.1 925.5 354.5C925.5 354.9 929.167 364 931 368.5ZM840 336C836.833 337.667 832 341.7 838 344.5C844 347.3 849.833 342.667 852 340L849 336H840ZM772.5 318.5L799.5 357.5L847 360L846 355.5L805 350.5L803 343C799.667 337.833 792.9 327.4 792.5 327C792.1 326.6 785.667 325.167 782.5 324.5C780.667 321.5 776.9 315.5 776.5 315.5C776.1 315.5 773.667 317.5 772.5 318.5ZM811.5 329.5L815 339L834.5 335V309.5L824 308L823 319L811.5 329.5ZM841.5 281L844 266.5L863.5 291.5L861.5 311.5L849 298V288.5L841.5 281ZM776.5 302L781 313C786.2 320.2 793.5 324 796.5 325L798.5 320L784 301.5V291.5L801.5 301.5L810.5 284L801.5 262.5L830.5 258C834.333 251.5 842.2 237.1 843 231.5C843.8 225.9 837.333 207.833 834 199.5L841.5 191.5L863.5 219.5L868 214L872 227.5L881 216L898 209.5L901 190C904.333 192.5 910.8 195.4 910 187C909.2 178.6 903 176.5 900 176.5V148L890.5 136.5H881L901 113.5L924.5 120L926.5 108L942.5 114.5L930.5 131L940 154L948 128L947 114.5L968 112.5C969.167 109.833 972.8 104.5 978 104.5C983.2 104.5 985.5 103.833 986 103.5L968 72L918 71L912.5 63.5L889.5 62.5L880 55C879.833 60.5 878.5 69.4 874.5 61C870.5 52.6 864.833 50.5 862.5 50.5L861 61.5L826.5 63.5L817 48L777.5 52.5L780 39L764.5 31C760.667 28.3333 752 24.2 748 29C744 33.8 736.667 36.3333 733.5 37H715.5L703 52.5H695L693 62.5L682 57L680.5 84.5L671.5 53.5L666.5 57L665 72H651L636.5 77L620.5 76L613 82.5L607 76L602 82.5L582 71H568.5L560 64L542.5 62.5L526 73L515.5 91.5C510 92.8333 498.9 97 498.5 103C498.1 109 498.333 118.5 498.5 122.5H513.5C509.833 124.833 503.6 130 508 132C512.4 134 517.833 133.833 520 133.5C522.5 132.333 527.7 128.1 528.5 120.5C529.3 112.9 531.167 103 532 99L547 91.5L551.5 97.5L538 110C536.5 112.333 534.4 117 538 117C541.6 117 542.5 121.667 542.5 124L533.5 138L512 142.5L503 137L496 144L479 160.5L472.5 158L486 147.5L467.5 119L461.5 121.5C461.167 122 460.7 123.9 461.5 127.5C462.3 131.1 456.167 136 453 138L451 149L455 154L467.5 144L467 136.5L470.5 138V146.5L464.5 156.5L473.5 170V184L455 185L456 198.5L467.5 207.5L481.5 205.5L480.5 193H492L496 183L510 181.5C512.833 177.667 519.3 170.4 522.5 172C525.7 173.6 540.167 193.333 547 203C545.667 206.167 544.4 212.2 550 211C555.6 209.8 555.667 203.5 555 200.5L554 195H563L572.5 209.5L591 211L589 222L569.5 228.5L547 222L542.5 232L510 212.5L509 205.5L502 204L497.5 209.5L474.5 212.5L453 219L449.5 238L435.5 259.5L434.5 278L429.5 284L430.5 295L456 312.5L507 314L515.5 326.5L512.5 339.5L524.5 354L517.5 395L528.5 411.5L545.5 452.5L555 445H570L582.5 423L590.5 400.5L604.5 386L603 346.5L639.5 293L613.5 291.5L582.5 245L583.5 235L602.5 250.5L613.5 283.5H631L657 262.5L655 256C653.333 259 647.6 262.1 638 250.5C628.4 238.9 630.333 242 632.5 245L624.5 233.5L645.5 241.5C645.833 237.833 649.1 232.9 659.5 242.5C669.9 252.1 679.833 253.5 683.5 253L701 267.5L710.5 299.5L717.5 305L724 294L722.5 276.5L739 267.5V259.5C739.667 253.667 743.4 245.2 753 258C762.6 270.8 770 275.667 772.5 276.5L777.5 285.5L776.5 302ZM639.5 66.5L621 53.5C616.667 49.3333 612.9 40.7 632.5 39.5C652.1 38.3 656 38 655.5 38L639.5 50.5V66.5Z" stroke="white"/>
<path d="M812.5 427.5C805.7 422.3 809.667 410 812.5 404.5L816 393L839.5 391L851.5 375.5L864.5 366H889.5L900 375.5L909 361.5L917.5 366L947.5 396.5L953 427.5L931 468L900 471L895 465L885 461.5L879 450.5C864.167 453.5 830.1 457.7 812.5 450.5C790.5 441.5 821 434 812.5 427.5Z" fill="#FF0000"/>
</svg>
